<svg xmlns="http://www.w3.org/2000/svg" xmlns:xlink="http://www.w3.org/1999/xlink" viewBox="0 0 583.33 342.25"><defs><style>.cls-1,.cls-2{fill:#5c5b5b;}.cls-1{stroke:#5c5b5b;stroke-width:1.94px;}.cls-1,.cls-10,.cls-11,.cls-12,.cls-13,.cls-16,.cls-9{stroke-miterlimit:10;}.cls-2{font-size:34.86px;font-family:MyriadPro-Regular, Myriad Pro;}.cls-3{fill:url(#linear-gradient);}.cls-4{fill:url(#linear-gradient-2);}.cls-5{fill:url(#linear-gradient-3);}.cls-6{fill:url(#linear-gradient-4);}.cls-7{fill:url(#linear-gradient-5);}.cls-8{fill:url(#linear-gradient-6);}.cls-10,.cls-11,.cls-12,.cls-13,.cls-16,.cls-9{fill:none;}.cls-9{stroke:#8b8b8b;stroke-width:3.93px;}.cls-10,.cls-11,.cls-12,.cls-13{stroke-width:6.64px;}.cls-10{stroke:url(#linear-gradient-7);}.cls-11{stroke:url(#linear-gradient-8);}.cls-12{stroke:url(#linear-gradient-9);}.cls-13{stroke:url(#linear-gradient-10);}.cls-14{fill:url(#linear-gradient-11);}.cls-15{fill:url(#linear-gradient-12);}.cls-16{stroke-width:6.71px;stroke:url(#linear-gradient-13);}</style><linearGradient id="linear-gradient" x1="57.5" y1="262.41" x2="71.62" y2="262.41" gradientUnits="userSpaceOnUse"><stop offset="0" stop-color="#010101"/><stop offset="0.05" stop-color="#060606"/><stop offset="0.11" stop-color="#161616"/><stop offset="0.18" stop-color="#2f2f2f"/><stop offset="0.25" stop-color="#535353"/><stop offset="0.33" stop-color="gray"/><stop offset="0.41" stop-color="#b8b8b8"/><stop offset="0.5" stop-color="#f9f9f9"/><stop offset="0.5" stop-color="#fff"/><stop offset="0.65" stop-color="#010101"/><stop offset="0.83" stop-color="#fff"/><stop offset="1" stop-color="#010101"/></linearGradient><linearGradient id="linear-gradient-2" x1="57.05" y1="282.6" x2="77.39" y2="282.6" xlink:href="#linear-gradient"/><linearGradient id="linear-gradient-3" x1="67.44" y1="292.64" x2="90.91" y2="292.64" xlink:href="#linear-gradient"/><linearGradient id="linear-gradient-4" x1="91.45" y1="284.43" x2="105.92" y2="284.43" xlink:href="#linear-gradient"/><linearGradient id="linear-gradient-5" x1="72.19" y1="254.38" x2="92.78" y2="254.38" xlink:href="#linear-gradient"/><linearGradient id="linear-gradient-6" x1="85.52" y1="261.53" x2="106.01" y2="261.53" xlink:href="#linear-gradient"/><linearGradient id="linear-gradient-7" x1="304.97" y1="1170.97" x2="376.89" y2="1170.97" gradientTransform="translate(421.32 1409.67) rotate(180)" xlink:href="#linear-gradient"/><linearGradient id="linear-gradient-8" x1="294.32" y1="1106.6" x2="382.61" y2="1106.6" gradientTransform="translate(421.32 1409.67) rotate(180)" xlink:href="#linear-gradient"/><linearGradient id="linear-gradient-9" x1="263.31" y1="1138.56" x2="343.05" y2="1138.56" gradientTransform="translate(421.32 1409.67) rotate(180)" xlink:href="#linear-gradient"/><linearGradient id="linear-gradient-10" x1="337.01" y1="1137.57" x2="416.75" y2="1137.57" gradientTransform="translate(421.32 1409.67) rotate(180)" xlink:href="#linear-gradient"/><linearGradient id="linear-gradient-11" x1="71.04" y1="67.38" x2="83.97" y2="67.38" xlink:href="#linear-gradient"/><linearGradient id="linear-gradient-12" x1="74.36" y1="21.97" x2="81.07" y2="21.97" xlink:href="#linear-gradient"/><linearGradient id="linear-gradient-13" x1="0" y1="68.77" x2="154.79" y2="68.77" xlink:href="#linear-gradient"/></defs><g id="Layer_2" data-name="Layer 2"><path class="cls-1" d="M169,270.46h-3.75V221.9H169Z" transform="translate(-3.81 -204.75)"/><path class="cls-1" d="M223.51,221.94v48.52h0L219.76,267,181,230.51v39.95H177.2V221.94l3.75,3.55L219.76,262v-40Z" transform="translate(-3.81 -204.75)"/><path class="cls-1" d="M270.84,225.49H235.57v44.94l-3.89,0V221.87h39.16Zm-.14,31.16H241.47v-3.56H270.7Z" transform="translate(-3.81 -204.75)"/><path class="cls-1" d="M314.6,239.51q0,9.18-6.93,13.82a23.45,23.45,0,0,1-10.58,3.59l14.73,13.54h-5.54L291.7,257.05,288,253.53h7.36a18.59,18.59,0,0,0,8-1.83q7.47-3.51,7.46-12.19t-7.46-12.19a18.43,18.43,0,0,0-8-1.83H282.77v45H279V222h16.3a23,23,0,0,1,9.72,2.27l9.57,4.44Z" transform="translate(-3.81 -204.75)"/><path class="cls-1" d="M326.53,270.46h-3.76V221.9h3.76Z" transform="translate(-3.81 -204.75)"/><path class="cls-1" d="M386.72,253.39a25.26,25.26,0,0,1-9.54,12.77,26.68,26.68,0,0,1-15.9,5.08,26.32,26.32,0,0,1-18.79-7.38,24.23,24.23,0,0,1,0-35.62,26.29,26.29,0,0,1,18.79-7.39,26.78,26.78,0,0,1,16.44,5.39,24.51,24.51,0,0,1,9.33,13.58h-4.22a20.94,20.94,0,0,0-8-10.84,22.69,22.69,0,0,0-13.51-4.27,22.28,22.28,0,0,0-15.9,6.23,20.53,20.53,0,0,0,0,30.18,22.22,22.22,0,0,0,15.9,6.26,23.1,23.1,0,0,0,19.23-10.33H352.35v-3.66Z" transform="translate(-3.81 -204.75)"/><path class="cls-1" d="M399,270.46h-3.75V221.9H399Z" transform="translate(-3.81 -204.75)"/><path class="cls-1" d="M447.59,228.51q7.19,6.33,7.18,17.71t-7.18,17.71a26.47,26.47,0,0,1-13.08,5.92,32.83,32.83,0,0,1-7.75.58H407.14l0-48.46h6.76l12.83,0a47,47,0,0,1,8.14.58l7.61,1.42ZM445,261.22q5.94-5.25,5.93-15t-5.93-15a22.89,22.89,0,0,0-11.58-5.08,27.26,27.26,0,0,0-6.47-.44h-16v41.11h16Q438.74,266.77,445,261.22Z" transform="translate(-3.81 -204.75)"/><path class="cls-1" d="M508,270.53h-4.53L481.06,230.3,458.8,270.53H454l24.45-44.09v0l2.57-4.54,2.47,4.4Z" transform="translate(-3.81 -204.75)"/><path class="cls-1" d="M542.56,225.53H525.13v44.93h-3.76V225.53H504V222h38.55Z" transform="translate(-3.81 -204.75)"/><path class="cls-1" d="M585.66,225.49H550.39v41.38h35.27v3.59H546.5V221.87h39.16Zm-.14,31.16H556.29v-3.56h29.23Z" transform="translate(-3.81 -204.75)"/></g><g id="Layer_3" data-name="Layer 3"><text x="-3.81" y="-204.75"/><text x="-3.81" y="-204.75"/><text class="cls-2" transform="translate(155 113.23) scale(1.68 1)">ENGINEERS INDIA</text><path class="cls-3" d="M57.55,268c0,.09,0,.17,0,.26v.05a21,21,0,0,0,11.09,7.84l.41.11L71.62,264a28.22,28.22,0,0,1-.3-15.46h0l-.44.23-.14.08-.3.17a23.72,23.72,0,0,0-3,2.07l-.16.12-.46.38c-.17.15-.34.29-.5.45l-.25.22-.66.63-.07.07c-.52.52-1,1.06-1.5,1.62l-.6.74-.07.09-.23.31-.09.11A27.19,27.19,0,0,0,61,258.56c-.23.39-.46.81-.69,1.27l0,0c-.09.19-.19.38-.29.57l0,.06-.06.13-.06.12-.33.72-.1.24c-.13.3-.24.58-.34.84l-.07.18c-.11.3-.22.6-.32.9l-.05.11-.3,1-.06.21c-.1.32-.19.65-.27,1l-.05.2c-.09.37-.17.7-.24,1v.06h0C57.66,267.43,57.6,267.72,57.55,268Z" transform="translate(-3.81 -204.75)"/><path class="cls-4" d="M59.57,285.63l.14.32v0a28.24,28.24,0,0,0,1.85,3.43l.11.17c.11.17.22.34.34.51l.39.57.2.28c.22.29.4.53.57.74l.06.08c.46.58.95,1.14,1.44,1.67l.67.68.08.08.07.06a20,20,0,0,0,11.89-7.19l-8.13-8.65c-.37-.08-.73-.16-1.1-.26a22.67,22.67,0,0,1-11-7.18v.26c0,.28,0,.57-.05.85v.26c0,.25,0,.51,0,.76v1.5c0,.28,0,.56,0,.83v.25c0,.34.05.64.08.92l0,.16c0,.38.08.73.13,1.07a31.73,31.73,0,0,0,.71,3.49q.12.46.27,1l0,.11c0,.14.09.27.13.4l.09.28.07.21v0l.28.78.09.23c.08.22.17.45.26.67l.21.49Z" transform="translate(-3.81 -204.75)"/><path class="cls-5" d="M82.3,301h.29c.25,0,.5,0,.75,0l.21,0,.83-.09.13,0a21.92,21.92,0,0,0,4.07-1l.86-.31.09,0,.09,0a26,26,0,0,0,.31-15.14l-10.74,3.65A22.24,22.24,0,0,1,67.44,296l.83.62c.34.25.71.5,1.13.76h0q.27.18.54.33l.25.15.66.37.21.11c.27.14.52.27.76.38l.15.07c.28.14.56.26.83.37l.08,0,.87.34.18.07.87.29L75,300l.81.24.13,0,.81.2.21,0,.36.07.27.05.13,0h0l.82.12.19,0,.74.08h.1l.77,0h.22l.7,0h1Z" transform="translate(-3.81 -204.75)"/><path class="cls-6" d="M104.05,284.2c.12-.33.23-.64.33-.95l0-.08c.1-.3.2-.62.31-1l.06-.2c.09-.32.18-.65.26-1l0-.18c.1-.38.18-.73.25-1.05s.11-.56.17-.91l0-.23.06-.4.05-.28a1.41,1.41,0,0,0,0-.18v0c0-.29.08-.59.11-.93l0-.21c0-.28.06-.56.08-.83v-.1a3.91,3.91,0,0,0,0-.49,11,11,0,0,0-6.31-4.29s-4.56-.53-5.56-.43L91.45,283a28.21,28.21,0,0,1,.39,15.46h0l.42-.23.16-.09.29-.16a24.66,24.66,0,0,0,3-2.08l.18-.15.41-.34.55-.49.23-.21c.25-.23.47-.44.67-.65l0-.05c.52-.52,1-1.08,1.5-1.64l.6-.75.07-.09.24-.33.07-.09a27.21,27.21,0,0,0,1.77-2.7c.23-.39.44-.8.67-1.24l.33-.67v0l0-.09.06-.14.34-.75.09-.22c.12-.31.24-.59.34-.86Z" transform="translate(-3.81 -204.75)"/><path class="cls-7" d="M92.78,249.16l-.61-.35-.2-.11c-.27-.14-.51-.27-.75-.38l-.15-.07c-.28-.14-.56-.26-.82-.38l-.08,0c-.26-.11-.54-.23-.87-.35l-.17-.06q-.42-.17-.87-.3l-.15,0-.94-.28-.8-.2-.2,0-.36-.08-.22,0-.18,0h-.07l-.79-.13-.2,0c-.24,0-.48-.06-.72-.09h-.1l-.76-.06h-.23l-.68,0H80.54l-.75.05-.21,0c-.3,0-.57.05-.82.09h-.14l-1,.16a22.59,22.59,0,0,0-3.09.79c-.27.09-.55.19-.85.31l-.1,0-.08,0a26,26,0,0,0-.41,15.14l10.55-3.54C84.42,257.32,87.26,251.2,92.78,249.16Z" transform="translate(-3.81 -204.75)"/><path class="cls-8" d="M103.51,261.37l-.15-.32c-.38-.84-.8-1.65-1.25-2.43-.18-.32-.37-.63-.58-1l-.14-.23c-.1-.14-.19-.29-.29-.44l-.44-.63-.19-.26c-.21-.29-.39-.53-.57-.76l-.05-.06c-.46-.58-.95-1.14-1.45-1.68l-.66-.67-.09-.09-.28-.27-.09-.08a24.83,24.83,0,0,0-2.12-1.79c-5.74.92-8.78,7.06-9.64,9.09l8.19,8.71A17.44,17.44,0,0,1,100,269a13,13,0,0,1,6,3.4l0-.78,0-.23c0-.34,0-.64-.08-.93l0-.15c0-.39-.08-.74-.13-1.07v0a31.86,31.86,0,0,0-.71-3.47c-.08-.31-.17-.63-.27-.95l0-.12c0-.13-.08-.25-.13-.38l-.09-.3-.07-.21c-.09-.26-.18-.52-.3-.84l-.07-.2c-.09-.23-.18-.46-.28-.69l-.19-.46Z" transform="translate(-3.81 -204.75)"/><ellipse class="cls-9" cx="77.65" cy="68.98" rx="13.57" ry="15.2"/><path class="cls-10" d="M51.84,214.53a82.3,82.3,0,0,1,57.26-.84c-16.48,11.22-27.51,31.54-27.51,54.74h-.07C80.81,245.16,69,225.05,51.84,214.53Z" transform="translate(-3.81 -204.75)"/><path class="cls-11" d="M81.59,270.72c0-.77,0-1.52-.07-2.29h.07c0,27.65,15.67,51.2,37.58,60.13a81.87,81.87,0,0,1-72.72,1.24C67.09,320.17,81.59,297.35,81.59,270.72Z" transform="translate(-3.81 -204.75)"/><path class="cls-12" d="M81.59,268.43c0-23.2,11-43.52,27.51-54.74,26.74,9.55,45.59,32.66,45.59,59.63,0,23.46-14.23,44-35.52,55.24C97.26,319.63,81.59,296.08,81.59,268.43Z" transform="translate(-3.81 -204.75)"/><path class="cls-13" d="M7.89,273.27c0-26.23,17.8-48.77,43.35-58.79,17.17,10.51,29,30.62,29.69,53.89,0,.78.06,1.52.06,2.3,0,26.62-14.5,49.45-35.14,59.07C23.22,318.8,7.89,297.62,7.89,273.27Z" transform="translate(-3.81 -204.75)"/><ellipse class="cls-14" cx="77.5" cy="67.38" rx="6.46" ry="35.66"/><ellipse class="cls-15" cx="77.72" cy="21.97" rx="3.35" ry="8.02"/><ellipse class="cls-16" cx="77.39" cy="68.77" rx="74.04" ry="65.41"/><text x="-3.81" y="-204.75"/></g></svg>